<svg width="27" height="28" viewBox="0 0 27 28" fill="none" xmlns="http://www.w3.org/2000/svg">
<path d="M13.5 8.16667V24.5M13.5 8.16667C13.5 6.92899 13.0258 5.742 12.1819 4.86683C11.3379 3.99167 10.1932 3.5 8.99962 3.5H3.37417C3.07578 3.5 2.78961 3.62292 2.57862 3.84171C2.36762 4.0605 2.24908 4.35725 2.24908 4.66667V19.8333C2.24908 20.1428 2.36762 20.4395 2.57862 20.6583C2.78961 20.8771 3.07578 21 3.37417 21H10.1247C11.0199 21 11.8784 21.3687 12.5114 22.0251C13.1444 22.6815 13.5 23.5717 13.5 24.5M13.5 8.16667C13.5 6.92899 13.9741 5.742 14.8181 4.86683C15.6621 3.99167 16.8068 3.5 18.0003 3.5H23.6258C23.9242 3.5 24.2104 3.62292 24.4214 3.84171C24.6323 4.0605 24.7509 4.35725 24.7509 4.66667V19.8333C24.7509 20.1428 24.6323 20.4395 24.4214 20.6583C24.2104 20.8771 23.9242 21 23.6258 21H16.8753C15.9801 21 15.1216 21.3687 14.4886 22.0251C13.8556 22.6815 13.5 23.5717 13.5 24.5" stroke="#183D35" stroke-width="1.6" stroke-linecap="round"/>
</svg>
